<svg width="100" height="100" viewBox="0 0 100 100" fill="none" xmlns="http://www.w3.org/2000/svg">
<rect x="12" y="8" width="16" height="3" fill="#D43300"/>
<rect x="18" y="13" width="7" height="3" fill="#FFB800"/>
<rect x="97" y="23" width="16" height="3" transform="rotate(180 97 23)" fill="#D43300"/>
<rect x="75" y="12" width="5" height="3" transform="rotate(180 75 12)" fill="#FFB800"/>
<rect x="18" y="81" width="9" height="2" transform="rotate(180 18 81)" fill="#D43300"/>
<rect x="31" y="95" width="9" height="2" transform="rotate(180 31 95)" fill="#D43300"/>
<rect x="90" y="90" width="12" height="3" transform="rotate(180 90 90)" fill="#D43300"/>
<rect x="59" y="23" width="9" height="3" transform="rotate(180 59 23)" fill="#D43300"/>
<rect x="86" y="34" width="9" height="3" transform="rotate(180 86 34)" fill="#D43300"/>
<rect x="77" y="65" width="6" height="3" transform="rotate(180 77 65)" fill="#D43300"/>
<rect x="57" y="92" width="6" height="3" transform="rotate(180 57 92)" fill="#D43300"/>
<rect x="48" y="42" width="9" height="3" transform="rotate(180 48 42)" fill="#D43300"/>
<rect x="19" y="57" width="9" height="3" transform="rotate(180 19 57)" fill="#D43300"/>
<rect x="45" y="66" width="4" height="3" transform="rotate(180 45 66)" fill="#D43300"/>
<rect x="59" y="58" width="4" height="3" transform="rotate(180 59 58)" fill="#D43300"/>
<rect x="28" y="81" width="5" height="3" transform="rotate(180 28 81)" fill="#FFB800"/>
<rect x="83" y="54" width="5" height="3" transform="rotate(180 83 54)" fill="#FFB800"/>
<rect x="72" y="83" width="5" height="3" transform="rotate(180 72 83)" fill="#FFB800"/>
<rect x="16" y="40" width="5" height="3" transform="rotate(180 16 40)" fill="#FFB800"/>
<rect x="67" y="43" width="5" height="3" transform="rotate(180 67 43)" fill="#FFB800"/>
<rect x="65" y="31" width="5" height="3" transform="rotate(180 65 31)" fill="#FFB800"/>
<rect x="59" y="74" width="5" height="3" transform="rotate(180 59 74)" fill="#FFB800"/>
<rect x="38" y="57" width="9" height="3" transform="rotate(180 38 57)" fill="#FFB800"/>
</svg>
